<svg width="62" height="15" viewBox="0 0 62 15" fill="none" xmlns="http://www.w3.org/2000/svg">
<path d="M4.374 14V3.074H0.18V1.04H10.737V3.074H6.543V14H4.374ZM17.657 14.27C16.361 14.27 15.251 13.988 14.327 13.424C13.403 12.854 12.692 12.062 12.194 11.048C11.702 10.034 11.456 8.858 11.456 7.52C11.456 6.182 11.702 5.006 12.194 3.992C12.692 2.978 13.403 2.189 14.327 1.625C15.251 1.055 16.361 0.77 17.657 0.77C18.953 0.77 20.063 1.055 20.987 1.625C21.917 2.189 22.628 2.978 23.12 3.992C23.618 5.006 23.867 6.182 23.867 7.52C23.867 8.858 23.618 10.034 23.12 11.048C22.628 12.062 21.917 12.854 20.987 13.424C20.063 13.988 18.953 14.27 17.657 14.27ZM17.657 12.227C18.527 12.233 19.25 12.041 19.826 11.651C20.408 11.261 20.843 10.712 21.131 10.004C21.425 9.296 21.572 8.468 21.572 7.52C21.572 6.572 21.425 5.75 21.131 5.054C20.843 4.352 20.408 3.806 19.826 3.416C19.25 3.026 18.527 2.825 17.657 2.813C16.787 2.807 16.064 2.999 15.488 3.389C14.912 3.779 14.477 4.328 14.183 5.036C13.895 5.744 13.751 6.572 13.751 7.52C13.751 8.468 13.895 9.293 14.183 9.995C14.471 10.691 14.903 11.234 15.479 11.624C16.061 12.014 16.787 12.215 17.657 12.227ZM56.5414 14.27C55.5934 14.27 54.7384 14.105 53.9764 13.775C53.2204 13.445 52.5964 12.974 52.1044 12.362C51.6184 11.744 51.3094 11.012 51.1774 10.166L53.4274 9.824C53.6194 10.592 54.0124 11.186 54.6064 11.606C55.2064 12.026 55.8964 12.236 56.6764 12.236C57.1384 12.236 57.5734 12.164 57.9814 12.02C58.3894 11.876 58.7194 11.666 58.9714 11.39C59.2294 11.114 59.3584 10.775 59.3584 10.373C59.3584 10.193 59.3284 10.028 59.2684 9.878C59.2084 9.722 59.1184 9.584 58.9984 9.464C58.8844 9.344 58.7344 9.236 58.5484 9.14C58.3684 9.038 58.1584 8.951 57.9184 8.879L54.5704 7.889C54.2824 7.805 53.9704 7.694 53.6344 7.556C53.3044 7.412 52.9894 7.217 52.6894 6.971C52.3954 6.719 52.1524 6.401 51.9604 6.017C51.7744 5.627 51.6814 5.147 51.6814 4.577C51.6814 3.743 51.8914 3.044 52.3114 2.48C52.7374 1.91 53.3074 1.484 54.0214 1.202C54.7414 0.919999 55.5394 0.781999 56.4154 0.788C57.3034 0.793999 58.0954 0.946999 58.7914 1.247C59.4874 1.541 60.0694 1.97 60.5374 2.534C61.0054 3.098 61.3354 3.779 61.5274 4.577L59.1964 4.982C59.1004 4.526 58.9144 4.139 58.6384 3.821C58.3684 3.497 58.0354 3.251 57.6394 3.083C57.2494 2.915 56.8324 2.825 56.3884 2.813C55.9564 2.807 55.5544 2.873 55.1824 3.011C54.8164 3.143 54.5194 3.335 54.2914 3.587C54.0694 3.839 53.9584 4.133 53.9584 4.469C53.9584 4.787 54.0544 5.048 54.2464 5.252C54.4384 5.45 54.6754 5.609 54.9574 5.729C55.2454 5.843 55.5364 5.939 55.8304 6.017L58.1524 6.665C58.4704 6.749 58.8274 6.863 59.2234 7.007C59.6194 7.151 60.0004 7.352 60.3664 7.61C60.7324 7.868 61.0324 8.207 61.2664 8.627C61.5064 9.047 61.6264 9.581 61.6264 10.229C61.6264 10.901 61.4854 11.492 61.2034 12.002C60.9274 12.506 60.5524 12.926 60.0784 13.262C59.6044 13.598 59.0614 13.85 58.4494 14.018C57.8434 14.186 57.2074 14.27 56.5414 14.27Z" fill="white"/>
<path d="M25.6584 14V1.04H29.7894C29.8974 1.04 30.1104 1.043 30.4284 1.049C30.7524 1.055 31.0644 1.076 31.3644 1.112C32.3904 1.244 33.2574 1.61 33.9654 2.21C34.6794 2.804 35.2194 3.563 35.5854 4.487C35.9514 5.411 36.1344 6.422 36.1344 7.52C36.1344 8.618 35.9514 9.629 35.5854 10.553C35.2194 11.477 34.6794 12.239 33.9654 12.839C33.2574 13.433 32.3904 13.796 31.3644 13.928C31.0704 13.964 30.7614 13.985 30.4374 13.991C30.1134 13.997 29.8974 14 29.7894 14H25.6584ZM27.8634 11.957H29.7894C29.9694 11.957 30.1974 11.951 30.4734 11.939C30.7554 11.927 31.0044 11.9 31.2204 11.858C31.8324 11.744 32.3304 11.471 32.7144 11.039C33.0984 10.607 33.3804 10.082 33.5604 9.464C33.7464 8.846 33.8394 8.198 33.8394 7.52C33.8394 6.818 33.7464 6.158 33.5604 5.54C33.3744 4.922 33.0864 4.403 32.6964 3.983C32.3124 3.563 31.8204 3.296 31.2204 3.182C31.0044 3.134 30.7554 3.107 30.4734 3.101C30.1974 3.089 29.9694 3.083 29.7894 3.083H27.8634V11.957ZM43.743 14.27C42.447 14.27 41.337 13.988 40.413 13.424C39.489 12.854 38.778 12.062 38.28 11.048C37.788 10.034 37.542 8.858 37.542 7.52C37.542 6.182 37.788 5.006 38.28 3.992C38.778 2.978 39.489 2.189 40.413 1.625C41.337 1.055 42.447 0.77 43.743 0.77C45.039 0.77 46.149 1.055 47.073 1.625C48.003 2.189 48.714 2.978 49.206 3.992C49.704 5.006 49.953 6.182 49.953 7.52C49.953 8.858 49.704 10.034 49.206 11.048C48.714 12.062 48.003 12.854 47.073 13.424C46.149 13.988 45.039 14.27 43.743 14.27ZM43.743 12.227C44.613 12.233 45.336 12.041 45.912 11.651C46.494 11.261 46.929 10.712 47.217 10.004C47.511 9.296 47.658 8.468 47.658 7.52C47.658 6.572 47.511 5.75 47.217 5.054C46.929 4.352 46.494 3.806 45.912 3.416C45.336 3.026 44.613 2.825 43.743 2.813C42.873 2.807 42.15 2.999 41.574 3.389C40.998 3.779 40.563 4.328 40.269 5.036C39.981 5.744 39.837 6.572 39.837 7.52C39.837 8.468 39.981 9.293 40.269 9.995C40.557 10.691 40.989 11.234 41.565 11.624C42.147 12.014 42.873 12.215 43.743 12.227Z" fill="#FC5151"/>
</svg>
